<svg xmlns="http://www.w3.org/2000/svg" version="1.1" xmlns:xlink="http://www.w3.org/1999/xlink" xmlns:svgjs="http://svgjs.dev/svgjs" width="1500" height="1500" viewBox="0 0 1500 1500"><rect width="1500" height="1500" fill="#000000"></rect><g transform="matrix(0.6666666666666666,0,0,0.6666666666666666,249.39393939393938,438.5856950067477)"><svg viewBox="0 0 396 247" data-background-color="#000000" preserveAspectRatio="xMidYMid meet" height="935" width="1500" xmlns="http://www.w3.org/2000/svg" xmlns:xlink="http://www.w3.org/1999/xlink"><g id="tight-bounds" transform="matrix(1,0,0,1,0.2400000000000091,-0.09999999999999432)"><svg viewBox="0 0 395.52 247.2" height="247.2" width="395.52"><rect width="395.52" height="247.2" fill="url(#03b3a7d7-e2ad-43b1-9a46-037fc1c17fce)" mask="url(#b9f975fc-5600-42b1-b379-f9879509a126)" data-fill-palette-color="tertiary"></rect><g><svg></svg></g><g><svg viewBox="0 0 395.52 247.2" height="247.2" width="395.52"><g transform="matrix(1,0,0,1,136.41745810055866,47.21520000000001)"><svg viewBox="0 0 122.68508379888266 152.76959999999997" height="152.76959999999997" width="122.68508379888266"><g><svg viewBox="0 0 122.68508379888266 152.76959999999997" height="152.76959999999997" width="122.68508379888266"><g><svg viewBox="0 0 122.68508379888266 152.76959999999997" height="152.76959999999997" width="122.68508379888266"><g><svg viewBox="0 0 122.68508379888266 152.76959999999997" height="152.76959999999997" width="122.68508379888266"><g id="textblocktransform"><svg viewBox="0 0 122.68508379888266 152.76959999999997" height="152.76959999999997" width="122.68508379888266" id="textblock"><g><svg viewBox="0 0 122.68508379888266 152.76959999999997" height="152.76959999999997" width="122.68508379888266"><g transform="matrix(1,0,0,1,0,0)"><svg width="122.68508379888266" viewBox="4.55 -35.8 28.749999999999996 35.8" height="152.76959999999997" data-palette-color="url(#a491101c-026d-4f39-8596-fa7055dd5059)"></svg></g></svg></g></svg></g></svg></g></svg></g></svg></g></svg></g><path d="M76.801 41.215L76.801 0 324.001 0 324.001 247.2 76.801 247.2 76.801 205.985 90.578 205.985 90.578 233.423 310.224 233.423 310.224 13.777 90.578 13.777 90.578 41.215Z" fill="url(#03b3a7d7-e2ad-43b1-9a46-037fc1c17fce)" stroke="transparent" data-fill-palette-color="tertiary"></path></svg></g><defs></defs><mask id="8a4c3db7-cbe9-4ac9-a2a1-84166b21e11b"><g id="SvgjsG1106"><svg viewBox="0 0 395.52 247.2" height="247.2" width="395.52"><g><svg></svg></g><g><svg viewBox="0 0 395.52 247.2" height="247.2" width="395.52"><g transform="matrix(1,0,0,1,136.41745810055866,47.21520000000001)"><svg viewBox="0 0 122.68508379888266 152.76959999999997" height="152.76959999999997" width="122.68508379888266"><g><svg viewBox="0 0 122.68508379888266 152.76959999999997" height="152.76959999999997" width="122.68508379888266"><g><svg viewBox="0 0 122.68508379888266 152.76959999999997" height="152.76959999999997" width="122.68508379888266"><g><svg viewBox="0 0 122.68508379888266 152.76959999999997" height="152.76959999999997" width="122.68508379888266"><g id="SvgjsG1105"><svg viewBox="0 0 122.68508379888266 152.76959999999997" height="152.76959999999997" width="122.68508379888266" id="SvgjsSvg1104"><g><svg viewBox="0 0 122.68508379888266 152.76959999999997" height="152.76959999999997" width="122.68508379888266"><g transform="matrix(1,0,0,1,0,0)"><svg width="122.68508379888266" viewBox="4.55 -35.8 28.749999999999996 35.8" height="152.76959999999997" data-palette-color="url(#a491101c-026d-4f39-8596-fa7055dd5059)"><path d="M20.85-15.4L9.1-15.4 9.1 0 4.55 0 4.55-35.8 21-35.8Q26.7-35.8 29.5-33L29.5-33Q31.95-30.55 31.95-26.2L31.95-26.2Q31.95-23.15 30.63-21.15 29.3-19.15 26.25-17.65L26.25-17.65Q28.7-16.7 29.85-15.1L29.85-15.1Q31-13.45 31.15-8.35L31.15-8.35Q31.25-4.6 31.63-3.33 32-2.05 33.3-1.15L33.3-1.15 33.3 0 27.8 0Q26.7-2.3 26.7-4.85L26.7-4.85 26.75-10.45Q26.75-11 26.3-12.15 25.85-13.3 25.45-13.8L25.45-13.8Q24.1-15.4 20.85-15.4L20.85-15.4ZM9.1-31.75L9.1-19.45 20.15-19.45Q27.2-19.45 27.2-25.6L27.2-25.6Q27.2-31.75 20.15-31.75L20.15-31.75 9.1-31.75Z" opacity="1" transform="matrix(1,0,0,1,0,0)" fill="white" class="wordmark-text-0" id="SvgjsPath1103"></path></svg></g></svg></g></svg></g></svg></g></svg></g></svg></g></svg></g><path d="M76.801 41.215L76.801 0 324.001 0 324.001 247.2 76.801 247.2 76.801 205.985 90.578 205.985 90.578 233.423 310.224 233.423 310.224 13.777 90.578 13.777 90.578 41.215Z" fill="black" stroke="transparent"></path></svg></g><defs><mask></mask></defs></svg><rect width="395.52" height="247.2" fill="black" stroke="none" visibility="hidden"></rect></g></mask><linearGradient x1="0.054" x2="0.941" y1="0.5" y2="0.5" id="a491101c-026d-4f39-8596-fa7055dd5059"><stop stop-color="#0f3054" offset="0"></stop><stop stop-color="#3b8dcb" offset="0.498"></stop><stop stop-color="#0f3054" offset="1"></stop></linearGradient><rect width="395.52" height="247.2" fill="url(#a491101c-026d-4f39-8596-fa7055dd5059)" mask="url(#8a4c3db7-cbe9-4ac9-a2a1-84166b21e11b)" data-fill-palette-color="primary"></rect><mask id="b9f975fc-5600-42b1-b379-f9879509a126"><g id="SvgjsG1129"><svg viewBox="0 0 395.52 247.2" height="247.2" width="395.52"><g><svg></svg></g><g><svg viewBox="0 0 395.52 247.2" height="247.2" width="395.52"><g transform="matrix(1,0,0,1,136.41745810055866,47.21520000000001)"><svg viewBox="0 0 122.68508379888266 152.76959999999997" height="152.76959999999997" width="122.68508379888266"><g><svg viewBox="0 0 122.68508379888266 152.76959999999997" height="152.76959999999997" width="122.68508379888266"><g><svg viewBox="0 0 122.68508379888266 152.76959999999997" height="152.76959999999997" width="122.68508379888266"><g><svg viewBox="0 0 122.68508379888266 152.76959999999997" height="152.76959999999997" width="122.68508379888266"><g id="SvgjsG1128"><svg viewBox="0 0 122.68508379888266 152.76959999999997" height="152.76959999999997" width="122.68508379888266" id="SvgjsSvg1127"><g><svg viewBox="0 0 122.68508379888266 152.76959999999997" height="152.76959999999997" width="122.68508379888266"><g transform="matrix(1,0,0,1,0,0)"><svg width="122.68508379888266" viewBox="4.55 -35.8 28.749999999999996 35.8" height="152.76959999999997" data-palette-color="url(#a491101c-026d-4f39-8596-fa7055dd5059)"></svg></g></svg></g></svg></g></svg></g></svg></g></svg></g></svg></g><path d="M76.801 41.215L76.801 0 324.001 0 324.001 247.2 76.801 247.2 76.801 205.985 90.578 205.985 90.578 233.423 310.224 233.423 310.224 13.777 90.578 13.777 90.578 41.215Z" fill="white" stroke="transparent"></path></svg></g><defs><mask></mask></defs><mask><g id="SvgjsG1126"><svg viewBox="0 0 395.52 247.2" height="247.2" width="395.52"><g><svg></svg></g><g><svg viewBox="0 0 395.52 247.2" height="247.2" width="395.52"><g transform="matrix(1,0,0,1,136.41745810055866,47.21520000000001)"><svg viewBox="0 0 122.68508379888266 152.76959999999997" height="152.76959999999997" width="122.68508379888266"><g><svg viewBox="0 0 122.68508379888266 152.76959999999997" height="152.76959999999997" width="122.68508379888266"><g><svg viewBox="0 0 122.68508379888266 152.76959999999997" height="152.76959999999997" width="122.68508379888266"><g><svg viewBox="0 0 122.68508379888266 152.76959999999997" height="152.76959999999997" width="122.68508379888266"><g id="SvgjsG1125"><svg viewBox="0 0 122.68508379888266 152.76959999999997" height="152.76959999999997" width="122.68508379888266" id="SvgjsSvg1124"><g><svg viewBox="0 0 122.68508379888266 152.76959999999997" height="152.76959999999997" width="122.68508379888266"><g transform="matrix(1,0,0,1,0,0)"><svg width="122.68508379888266" viewBox="4.55 -35.8 28.749999999999996 35.8" height="152.76959999999997" data-palette-color="url(#a491101c-026d-4f39-8596-fa7055dd5059)"><path d="M20.85-15.4L9.1-15.4 9.1 0 4.55 0 4.55-35.8 21-35.8Q26.7-35.8 29.5-33L29.5-33Q31.95-30.55 31.95-26.2L31.95-26.2Q31.95-23.15 30.63-21.15 29.3-19.15 26.25-17.65L26.25-17.65Q28.7-16.7 29.85-15.1L29.85-15.1Q31-13.45 31.15-8.35L31.15-8.35Q31.25-4.6 31.63-3.33 32-2.05 33.3-1.15L33.3-1.15 33.3 0 27.8 0Q26.7-2.3 26.7-4.85L26.7-4.85 26.75-10.45Q26.75-11 26.3-12.15 25.85-13.3 25.45-13.8L25.45-13.8Q24.1-15.4 20.85-15.4L20.85-15.4ZM9.1-31.75L9.1-19.45 20.15-19.45Q27.2-19.45 27.2-25.6L27.2-25.6Q27.2-31.75 20.15-31.75L20.15-31.75 9.1-31.75Z" opacity="1" transform="matrix(1,0,0,1,0,0)" fill="black" class="wordmark-text-0" id="SvgjsPath1123"></path></svg></g></svg></g></svg></g></svg></g></svg></g></svg></g></svg></g><path d="M76.801 41.215L76.801 0 324.001 0 324.001 247.2 76.801 247.2 76.801 205.985 90.578 205.985 90.578 233.423 310.224 233.423 310.224 13.777 90.578 13.777 90.578 41.215Z" fill="black" stroke="transparent"></path></svg></g><defs><mask></mask></defs></svg><rect width="395.52" height="247.2" fill="black" stroke="none" visibility="hidden"></rect></g></mask></svg><rect width="395.52" height="247.2" fill="black" stroke="none" visibility="hidden"></rect></g></mask><linearGradient x1="0.054" x2="0.941" y1="0.5" y2="0.5" id="03b3a7d7-e2ad-43b1-9a46-037fc1c17fce"><stop stop-color="#0f3054" offset="0"></stop><stop stop-color="#3b8dcb" offset="0.498"></stop><stop stop-color="#0f3054" offset="1"></stop></linearGradient></svg><rect width="395.52" height="247.2" fill="none" stroke="none" visibility="hidden"></rect></g></svg></g></svg>